<svg width="110" height="25" viewBox="0 0 110 25" fill="none" xmlns="http://www.w3.org/2000/svg">
<path d="M34.5989 4.26356C34.1962 2.76446 33.0103 1.5786 31.5112 1.17586C28.8039 0.4375 17.9074 0.4375 17.9074 0.4375C17.9074 0.4375 7.01101 0.459875 4.30368 1.19824C2.80458 1.60098 1.61873 2.78683 1.21599 4.28593C0.5 6.99326 0.5 12.654 0.5 12.654C0.5 12.654 0.5 18.3148 1.23836 21.0445C1.6411 22.5436 2.82696 23.7295 4.32606 24.1322C7.03338 24.8706 17.9298 24.8706 17.9298 24.8706C17.9298 24.8706 28.8262 24.8706 31.5336 24.1322C33.0327 23.7295 34.2185 22.5436 34.6213 21.0445C35.3596 18.3372 35.3596 12.654 35.3596 12.654C35.3596 12.654 35.3373 6.99326 34.5989 4.26356Z" fill="#DC3545"/>
<path d="M23.4787 12.6541L14.4394 7.4184V17.8897L23.4787 12.6541Z" fill="white"/>
<path d="M51.0666 22.6554C50.373 22.1856 49.8807 21.4696 49.5899 20.4851C49.299 19.5006 49.1647 18.2029 49.1647 16.5695V14.3545C49.1647 12.7211 49.3214 11.3786 49.657 10.3942C49.9926 9.3873 50.5072 8.67131 51.2232 8.22382C51.9392 7.77633 52.8566 7.53021 53.9977 7.53021C55.1164 7.53021 56.0337 7.75395 56.705 8.22382C57.3762 8.69369 57.8908 9.40967 58.2041 10.3942C58.5173 11.3786 58.6739 12.6987 58.6739 14.3321V16.5472C58.6739 18.1805 58.5173 19.4782 58.2041 20.4627C57.8908 21.4472 57.3986 22.1632 56.705 22.6331C56.0114 23.0806 55.0716 23.3267 53.9082 23.3267C52.6999 23.349 51.7602 23.1029 51.0666 22.6554ZM54.9374 20.2614C55.1388 19.7691 55.2283 18.9413 55.2283 17.8225V13.0567C55.2283 11.9604 55.1388 11.1549 54.9374 10.6627C54.736 10.148 54.4004 9.90191 53.9305 9.90191C53.4607 9.90191 53.1474 10.148 52.9461 10.6627C52.7447 11.1773 52.6552 11.9604 52.6552 13.0567V17.8225C52.6552 18.9413 52.7447 19.7691 52.9237 20.2614C53.1027 20.7536 53.4383 20.9997 53.9305 20.9997C54.4004 20.9997 54.736 20.7536 54.9374 20.2614ZM103.983 16.6143V17.3974L104.072 19.6125C104.139 20.1047 104.251 20.4627 104.43 20.6865C104.609 20.9102 104.9 21.0221 105.28 21.0221C105.795 21.0221 106.153 20.8207 106.332 20.418C106.533 20.0152 106.623 19.344 106.645 18.4266L109.621 18.6056C109.643 18.7399 109.643 18.9189 109.643 19.1426C109.643 20.5522 109.263 21.6038 108.48 22.2974C107.697 22.9911 106.623 23.3491 105.213 23.3491C103.513 23.3491 102.327 22.8121 101.656 21.7605C100.984 20.7088 100.626 19.0531 100.626 16.838V14.1307C100.626 11.8485 100.984 10.1704 101.678 9.1188C102.394 8.0672 103.602 7.53021 105.303 7.53021C106.488 7.53021 107.383 7.75395 108.01 8.17907C108.636 8.60419 109.084 9.27543 109.352 10.1928C109.621 11.1101 109.733 12.3631 109.733 13.9741V16.5919H103.983V16.6143ZM104.43 10.1704C104.251 10.3942 104.139 10.7298 104.072 11.222C104.005 11.7143 103.983 12.4526 103.983 13.4595V14.5558H106.488V13.4595C106.488 12.475 106.466 11.7366 106.399 11.222C106.332 10.7074 106.22 10.3494 106.041 10.148C105.862 9.94666 105.593 9.83479 105.235 9.83479C104.855 9.85717 104.587 9.96904 104.43 10.1704ZM42.6985 16.3234L38.7829 2.18268H42.2062L43.5711 8.58181C43.9291 10.1704 44.1752 11.5129 44.3542 12.6092H44.4437C44.5556 11.8038 44.8241 10.4837 45.2268 8.60419L46.6364 2.18268H50.0597L46.0994 16.3011V23.0806H42.7209V16.3234H42.6985Z" fill="#DC3545"/>
<path d="M69.7718 7.82111V23.103H67.0868L66.7959 21.2235H66.7288C65.9904 22.6331 64.8941 23.3491 63.4397 23.3491C62.4329 23.3491 61.6722 23.0135 61.2023 22.3422C60.71 21.671 60.4863 20.6418 60.4863 19.2322V7.82111H63.932V19.0308C63.932 19.702 63.9991 20.1943 64.1557 20.4851C64.3124 20.776 64.5585 20.9102 64.8941 20.9102C65.185 20.9102 65.4758 20.8207 65.7443 20.6418C66.0128 20.4628 66.2142 20.2166 66.3484 19.9481V7.82111H69.7718Z" fill="#DC3545"/>
<path d="M87.4253 7.82111V23.103H84.7404L84.4495 21.2235H84.3824C83.644 22.6331 82.5477 23.3491 81.0933 23.3491C80.0865 23.3491 79.3257 23.0135 78.8559 22.3422C78.3636 21.671 78.1399 20.6418 78.1399 19.2322V7.82111H81.5855V19.0308C81.5855 19.702 81.6527 20.1943 81.8093 20.4851C81.9659 20.776 82.212 20.9102 82.5477 20.9102C82.8385 20.9102 83.1294 20.8207 83.3979 20.6418C83.6664 20.4628 83.8678 20.2166 84.002 19.9481V7.82111H87.4253Z" fill="#DC3545"/>
<path d="M79.1243 4.95716H75.701V23.103H72.3448V4.95716H68.9215V2.18271H79.102V4.95716H79.1243ZM98.7916 10.2599C98.5902 9.29783 98.2546 8.60422 97.7847 8.15673C97.3149 7.73161 96.6884 7.50786 95.8605 7.50786C95.234 7.50786 94.6299 7.68686 94.0929 8.04485C93.5336 8.40285 93.1308 8.87271 92.8176 9.45445H92.7952V1.3996H89.4838V23.0806H92.3253L92.6833 21.6262H92.7505C93.019 22.1409 93.4217 22.5436 93.9363 22.8568C94.478 23.1536 95.0863 23.3076 95.7039 23.3043C96.8674 23.3043 97.7176 22.7673 98.277 21.6934C98.814 20.6194 99.1048 18.9413 99.1048 16.6814V14.265C99.1048 12.5645 98.993 11.222 98.7916 10.2599ZM95.6368 16.5025C95.6368 17.6212 95.592 18.4938 95.5025 19.1203C95.413 19.7468 95.2564 20.1943 95.0327 20.4628C94.8089 20.7313 94.518 20.8655 94.1601 20.8655C93.8692 20.8655 93.6231 20.7984 93.3769 20.6641C93.1308 20.5299 92.9518 20.3285 92.7952 20.06V11.3787C92.9071 10.9536 93.1084 10.6179 93.3993 10.3494C93.6902 10.0809 93.9811 9.94669 94.3167 9.94669C94.6747 9.94669 94.9432 10.0809 95.1222 10.3494C95.3235 10.6179 95.4354 11.0878 95.5249 11.7367C95.592 12.3855 95.6368 13.3029 95.6368 14.5111V16.5025Z" fill="#DC3545"/>
</svg>
